<?xml version="1.0" standalone="no"?><!DOCTYPE svg PUBLIC "-//W3C//DTD SVG 1.1//EN" "http://www.w3.org/Graphics/SVG/1.1/DTD/svg11.dtd"><svg t="1599362270842" class="icon" viewBox="0 0 1024 1024" version="1.1" xmlns="http://www.w3.org/2000/svg" p-id="14928" xmlns:xlink="http://www.w3.org/1999/xlink" width="200" height="200"><defs><style type="text/css"></style></defs><path d="M925.44 968.96H98.56C44.8 968.96 0 924.16 0 870.4V323.84c0-53.76 44.8-98.56 98.56-98.56h826.88c53.76 0 98.56 44.8 98.56 98.56V870.4c0 53.76-44.8 98.56-98.56 98.56zM98.56 280.32c-24.32 0-43.52 19.2-43.52 43.52V870.4c0 24.32 19.2 43.52 43.52 43.52h826.88c24.32 0 43.52-19.2 43.52-43.52V323.84c0-24.32-19.2-43.52-43.52-43.52H98.56z" fill="#333333" p-id="14929"></path><path d="M773.12 280.32H257.28v-115.2c0-60.16 48.64-108.8 108.8-108.8h296.96c60.16 0 108.8 48.64 108.8 108.8v115.2z m-460.8-55.04H716.8v-60.16c0-29.44-24.32-53.76-53.76-53.76H366.08c-29.44 0-53.76 24.32-53.76 53.76v60.16zM28.16 545.28h968.96v55.04H28.16z" fill="#333333" p-id="14930"></path><path d="M258.56 702.72c-25.6 0-47.36-20.48-47.36-47.36v-125.44c0-25.6 20.48-47.36 47.36-47.36 25.6 0 47.36 20.48 47.36 47.36v125.44c0 26.88-21.76 47.36-47.36 47.36zM762.88 702.72c-25.6 0-47.36-20.48-47.36-47.36v-125.44c0-25.6 20.48-47.36 47.36-47.36 25.6 0 47.36 20.48 47.36 47.36v125.44c0 26.88-20.48 47.36-47.36 47.36z" fill="#333333" p-id="14931"></path></svg>