<?xml version="1.0" standalone="no"?><!DOCTYPE svg PUBLIC "-//W3C//DTD SVG 1.1//EN" "http://www.w3.org/Graphics/SVG/1.1/DTD/svg11.dtd"><svg t="1599309328673" class="icon" viewBox="0 0 1024 1024" version="1.1" xmlns="http://www.w3.org/2000/svg" p-id="11494" xmlns:xlink="http://www.w3.org/1999/xlink" width="200" height="200"><defs><style type="text/css"></style></defs><path d="M872.098114 951.870726H49.077661a35.839149 35.839149 0 0 0-36.265805 35.839149 36.265805 36.265805 0 0 0 36.265805 36.265806h827.287019a33.705866 33.705866 0 0 0 34.985835-33.705867 42.665653 42.665653 0 0 0-39.252401-38.399088zM45.237752 843.07331h170.662614a29.012644 29.012644 0 0 0 24.319422-11.946383L836.258966 236.794376a34.559179 34.559179 0 0 0 0-52.052097l-170.662614-170.662613a34.985836 34.985836 0 0 0-52.478754 0l-118.183859 118.610516L20.91833 606.278934a34.559179 34.559179 0 0 0-11.946383 24.319423v170.662613a42.665653 42.665653 0 0 0 11.946383 28.159331 29.012644 29.012644 0 0 0 24.319422 13.653009zM639.570304 88.317902l120.317142 120.317143-68.265045 68.265045-120.317143-120.317142z m-554.653494 558.066746L523.09307 208.635045l120.317142 120.743799L205.660609 767.98176H85.343466z" fill="#4688FF" p-id="11495"></path><path d="M979.188904 987.283219m-35.412492 0a35.412492 35.412492 0 1 0 70.824985 0 35.412492 35.412492 0 1 0-70.824985 0Z" fill="#4688FF" p-id="11496"></path></svg>